# xmcd
#
# Track frame offsets: 
#        150
#        17331
#        36106
#        63927
#        87078
#        106796
#        129883
#        137527
#        156918
#        170579
#        194322
#        205778
#        223043
#        240081
#        245413
#        258853
#        281416
#
# Disc length: 4229 seconds
#
# Revision: 0
# Processed by: cddbd v1.5.2PL0 Copyright (c) Steve Scherf et al.
# Submitted via: ExactAudioCopy v1.0b1
#
DISCID=d5108311
DTITLE=Stephen Dale Petit - The Crave
DYEAR=2010
DGENRE=Blues
TTITLE0=3 Gunslingers
TTITLE1=California
TTITLE2=Let There Be More Light
TTITLE3=Gun Song
TTITLE4=Soul Survivor
TTITLE5=Need Your Love So Bad
TTITLE6=Judgement Day
TTITLE7=Cross Road Blues
TTITLE8=Open
TTITLE9=The Crave
TTITLE10=Lookin' For Trouble
TTITLE11=Slide
TTITLE12=As The Years Go Passing By
TTITLE13=Sunnyland Stomp
TTITLE14=It's All Good
TTITLE15=Voodoo Lover
TTITLE16=Hole In My Soul
EXTD=
EXTT0=
EXTT1=
EXTT2=
EXTT3=
EXTT4=
EXTT5=
EXTT6=
EXTT7=
EXTT8=
EXTT9=
EXTT10=
EXTT11=
EXTT12=
EXTT13=
EXTT14=
EXTT15=
EXTT16=
PLAYORDER=
